<?xml version="1.0" encoding="utf-8"?>
<!-- Generator: Adobe Illustrator 26.5.0, SVG Export Plug-In . SVG Version: 6.00 Build 0)  -->
<svg version="1.1" id="图层_1" xmlns="http://www.w3.org/2000/svg" xmlns:xlink="http://www.w3.org/1999/xlink" x="0px" y="0px"
	 viewBox="0 0 352 354" style="enable-background:new 0 0 352 354;" xml:space="preserve">
<style type="text/css">
	.st0{fill:#515966;}
	.st1{fill:#39424B;}
	.st2{fill:#E6EFF5;}
	.st3{fill:#CEDCE9;}
</style>
<g id="_x23_fcfdfeff">
</g>
<g id="_x23_515966ff">
	<path class="st0" d="M142.1,3.2C202.4-10.1,263.5,21.3,295,73c2.8-10-1-20.4-3.9-29.9c77.1,60.5,83.7,194.1-4.1,247.9
		c6.9,3.5,15.1,2.6,22.3,0.5c-12.3,17.4-35.8,23.9-56.3,22.6c-3.6-0.7-5.8,2.7-8.6,4.4c-13.9,8.5-30.8,11-43.4,22
		c-0.2-0.2-0.6-0.7-0.7-0.9c4.3-10,7.6-20.7,15.1-29.1c3.1-4,7.4-7.1,9.9-11.5c-1.4-1.9-4-0.8-5.9-0.7c-7.6,1.3-18.5-1.4-20.4,8.7
		c-5.8,2.9-8.9,8.6-13,13.3c-6.5-11.9-7-27.5,0.7-38.9c-20.9-9.4-16.6-22.4-25.3-38.8c-12.8-9.9-28.1-16.7-41.6-25.7
		c0.2-0.5,0.5-1.6,0.7-2.1c35.2-27.1,61.7-8.3,95,10.8c26.6,14.4,71.7,26.2,92.7-2.1c-5.8,0.7-11.6,1.2-17.3,0.2
		c22-18.6,33-47.1,33.1-75.6c-0.3-14.5,1-30.5-7-43.2c-8.4,3.3-16.2,8.1-24.4,11.8c-10,1.4-18.3,6.9-27.3,11.1
		c0.3-49.9-41.5-94.6-90.1-101.9c-32.5-5.4-65.3,3-95.4,15c-9.9,5.9-22.5,7.7-30.6,16.2c0.2,0.4,0.8,1.3,1,1.7
		c-2.4,0.9-4.8,1.9-7.3,2.4C68.5,31.9,103.6,10.2,142.1,3.2 M178.1,240.1c-5.3,14.4,9.5,27.8,23.6,24.6c1.4-0.7,1.6-2.4,2.2-3.7
		c3.7-0.6,7.4-1.5,10.8-3.1l0.2-0.7c-8.4-6-16.8-12.7-27-15.3l-0.1-0.8C184.8,239.9,181.3,238.7,178.1,240.1z"/>
	<path class="st0" d="M147.1,49.8c0.2-0.2,0.7-0.4,0.9-0.6l-0.2,0.4L147.1,49.8z"/>
	<path class="st0" d="M102,73.7c0.5-0.2,1.6-0.7,2.1-0.9l-0.2,0.9C103.4,73.7,102.5,73.7,102,73.7z"/>
	<path class="st0" d="M85.1,78.8c0.2-0.1,0.7-0.4,0.9-0.6l-0.2,0.4L85.1,78.8z"/>
	<path class="st0" d="M185.6,82.9c0.1,0.2,0.4,0.6,0.5,0.8l-0.7-0.1L185.6,82.9z"/>
	<path class="st0" d="M188.9,84.2c0.2,0.1,0.6,0.2,0.7,0.2l-0.5-0.1L188.9,84.2z"/>
	<path class="st0" d="M60,107.4c1.3-0.2,2.6-0.2,3.9,0l0.1,0.7c-1.4,0.4-2.7,0.4-4.1,0L60,107.4z"/>
	<path class="st0" d="M37.2,166.3l0.6-0.1l0,0.6C37.6,166.7,37.3,166.4,37.2,166.3z"/>
	<path class="st0" d="M27.2,193c0.1-0.2,0.4-0.7,0.5-1l-0.1,0.7L27.2,193z"/>
	<path class="st0" d="M24.1,205c0.1-0.2,0.3-0.6,0.4-0.8l0.2,0.7L24.1,205z"/>
</g>
<g id="_x23_39424bff">
	<path class="st1" d="M100.4,33.4c35.2-11.6,77.3-14.9,110.1,5.1c32,17.3,55.1,52.6,54.8,89.3c9-4.2,17.4-9.7,27.4-11.1
		c8.2-3.8,16-8.5,24.4-11.8c8,12.7,6.8,28.7,7,43.2c-0.1,28.5-11.1,57-33.1,75.6c5.7,1.1,11.6,0.5,17.3-0.2
		c-21.1,28.4-66.1,16.6-92.7,2.1c-33.2-19.1-59.8-38-95-10.8c20.8-49.4,72.3-19.1,110.5-14.8c26.3,2.6,49.4-15.5,63.5-36.1
		c-6-4.7-13.1-8-19.7-11.8c-7.2-4.3-14.5-8.4-21.7-12.4c-7.5-5.2-17.6-8-21.7-16.8c-4.4-8.4-8.8-16.9-15.2-23.9
		c-8.4-7.7-18.9-13-30-15.2c-0.3-0.4-0.8-1.1-1.1-1.6c6.9-9.8,10.2-22,7.7-33.8c-5.4,3.3-9.6,8.6-15.2,11.8
		c-1.8-8.6,0.2-17.7-2.4-26.4c-5.6,3.9-11,8.4-17.3,11.3c-7.9,3.8-16,6.8-23.9,10.4c-9,3.9-17.1,9.6-23.4,17.1
		c-2.1,0.4-4.3,0.6-6.5,0.3c-1.9,1.1-4.3,0.8-6.2,2.1c-17.1,2.5-39.3,18.2-47.4,33.7c4.5-0.8,9.1,0,13.5-0.5
		c3.3-0.4,6.6,0.5,9.5,1.9l-0.2,0.8c-16.1,6.1-30.1,17.1-40.9,30.5c-6,8.2-12.6,16.8-15.5,26.6c-2.3,0.4-0.4,2.9,0.6,0.8
		c6.3-2.2,12.9-3.2,19.5-2.4c0.6,0.5,1.4,1.2,2,1.8c-14.1,21.1-18.4,47-17,72c5.2-5.7,10.5-11.7,17.6-15.2
		c-8.5,30,4.3,60.7,20.9,85.3C-19.3,239.8-23.1,115,73,57.1c-7.5-2.5-15.5-0.1-22.9,1.5c-0.2-0.4-0.8-1.3-1-1.7
		c2.7-3.4,6.7-5.5,10.6-7.2C73.2,44,86.2,37.5,100.4,33.4z"/>
	<path class="st1" d="M180.9,110.6c31.4-9.3,40.9,34.2,12.1,15.5c-6.1-4.1-12.5-8.2-17.7-13.4C177.1,111.9,179.1,111.2,180.9,110.6z
		"/>
	<path class="st1" d="M178.1,240.1c3.2-1.3,6.7-0.1,9.8,1l0.1,0.8c-13.8,2.6,0,22.3,16,19.1c-0.6,1.3-0.9,3-2.2,3.7
		C187.7,267.9,172.8,254.4,178.1,240.1z"/>
	<path class="st1" d="M219.4,298.2c1.9-0.1,4.5-1.2,5.9,0.7c-2.5,4.5-6.8,7.5-9.9,11.5c-7.6,8.4-10.8,19-15.1,29.1
		c-3.7-12.1-4.8-27.3,1.7-38.5C207.3,298,213.6,299.3,219.4,298.2z"/>
</g>
<g id="_x23_e6eff5ff">
	<path class="st2" d="M171.4,36.5c1.1-1,2.3-2,3.7-2.7c0.1,16.5-11.9,29.6-23.1,40c6.9-0.9,13.5-3.4,19.9-5.9
		c3.5-1.2,3.3-5.4,5.6-7.7c5.4-3.2,9.7-7.8,14.6-11.6l0.6,0.2c2.2,11.9-0.9,25.1-8.9,34.3c12.2,2.8,21.8,6.7,31.4,15
		c7,7,11.4,16,16,24.7c4.1,8.9,14.2,11.6,21.7,16.8c4.5,2.4,9,5.1,13.5,7.5c3.1,1.7,6.1,3.8,9.3,5.4c6.1,3.8,12.9,6.8,18.6,11.3
		c-44.6,39.4-94.6,6.6-142.8-4.2c-32.3-6.9-70.2,1.9-88.3,31.5c8.8-2.3,17.9-5.2,27-4.2c-4.9,11.9-14.9,23.3-13.1,37.1
		c0.4,2.4-0.3,4.7-0.6,7.1c11.6,1.6,23.6,1.4,35.3,1.8c2.2,11.9-1.5,24.1,1.5,35.9c2,9.3,3.9,19,9.8,26.7c9.4-3,42.5-30.1,49.7-24.5
		c3.7,4.6,8.5,7.8,13.7,10.4c-7.7,11.4-7.1,27-0.7,38.9c4.1-4.7,7.2-10.4,13-13.3c-1.8,10.9-3.1,23.4,2,33.4
		c12.6-11,29.5-13.5,43.4-22c2.7-1.7,4.9-5.1,8.6-4.4c14.6,1.2,29-2.4,41.9-9.2c-28.9,32-73,47.7-115,48.2
		c-50.3,1.7-96.2-19-115.8-67.2c-4.9,5.6-3.8,15.2-4.3,22.4c-16.9-23.5-27.9-54.3-20-83.2c-7.1,3.4-12.4,9.4-17.6,15.2
		c-0.7-11.1,0-22.2,1.7-33.2c0.3-0.3,0.8-0.9,1.1-1.2c-1.4-2.6,1.4-4.9,0.9-7.6c1.3-2.5,1.4-5.4,2.5-7.9c1.9-5.6,4.4-11.1,7.2-16.3
		c0.9-2,2.2-4,3.6-5.8c1.8-1,0-2.7-1.4-1.8c0,0-0.6,0.1-0.6,0.1c-6.7-0.7-13.2,0.2-19.5,2.4l-0.6-0.8c1.5-6.1,5.3-11.5,8.5-16.8
		c7-11.2,16.2-21.1,26.8-28.9c4.6-3.3,9.5-6.2,14.6-8.7c2.2-1.3,5.2-1.5,7-3.4c-2.1-1.1-4.5-1.8-6.8-2.3c-0.9-1-2-1.2-3.2-0.6
		c-1.3-0.2-2.6-0.2-3.9,0c-1.2-0.7-2.3-0.5-3.1,0.7c-1.8,0.2-3.5,0.3-5.3,0.4L51,108c7.6-15.1,30.4-30.7,46.9-33.1
		c1.8-1.2,3.9-1.2,6-1.2c3.7-1.1,7.6-0.4,9.7-4.4C119,63,126.5,58.9,134,55.5C146.7,49.6,160.4,45.5,171.4,36.5 M183.6,106.6
		c-0.8,1.1-1.2,2.4-1.7,3.7c-2.2,0.6-4.5,1.5-6.6,2.3c4.4,4.4,9.8,8.1,15,11.7c6.5,4.4,13.9,8,21.6,9.5c1.2,0.1,2.8-0.5,2.7-2
		C218.4,114.1,199.9,100.1,183.6,106.6z"/>
	<path class="st2" d="M50.6,108.6c0.1-0.1,0.3-0.4,0.4-0.6l-0.1,0.5L50.6,108.6z"/>
	<path class="st2" d="M183.1,244.3c7.1-7.9,25,8.7,31.9,12.9l-0.2,0.7C203.6,264.3,179.9,261.1,183.1,244.3z"/>
</g>
<g id="_x23_cedce9ff">
	<path class="st3" d="M175.3,34.8c2.5,8.3,0.3,17.1,2.2,25.4c-2.3,2.3-2.1,6.5-5.6,7.7c-6.4,2.6-13,5-19.9,5.9
		C163.3,63.5,174.3,50.9,175.3,34.8z"/>
	<path class="st3" d="M170.9,36.9c0.1-0.1,0.4-0.3,0.5-0.4C171.3,36.6,171.1,36.8,170.9,36.9z"/>
	<path class="st3" d="M170.4,37.3c0.1-0.1,0.4-0.3,0.5-0.4C170.8,37,170.5,37.2,170.4,37.3z"/>
	<path class="st3" d="M166.8,39.9c0.2-0.1,0.5-0.3,0.7-0.4C167.2,39.6,166.9,39.8,166.8,39.9z"/>
	<path class="st3" d="M166,40.4c0.2-0.1,0.5-0.4,0.7-0.5C166.6,40,166.2,40.2,166,40.4z"/>
	<path class="st3" d="M164.4,41.4c0.2-0.1,0.5-0.3,0.7-0.4C164.9,41.1,164.5,41.3,164.4,41.4z"/>
	<path class="st3" d="M160.8,43.5c0.2-0.1,0.5-0.3,0.7-0.4C161.3,43.2,160.9,43.4,160.8,43.5z"/>
	<path class="st3" d="M158.9,44.5c0.2-0.1,0.7-0.3,0.9-0.5C159.6,44.2,159.2,44.4,158.9,44.5z"/>
	<path class="st3" d="M157,45.5c0.2-0.1,0.7-0.3,0.9-0.5C157.7,45.1,157.2,45.4,157,45.5z"/>
	<path class="st3" d="M155.3,46.2c0.2-0.1,0.5-0.2,0.7-0.3C155.8,46,155.5,46.2,155.3,46.2z"/>
	<path class="st3" d="M149.9,48.6c0.2-0.1,0.5-0.2,0.7-0.3C150.4,48.4,150,48.5,149.9,48.6z"/>
	<path class="st3" d="M192.2,48.5c0.1,0,0.4-0.1,0.6-0.2l0.1,0.4L192.2,48.5z"/>
	<path class="st3" d="M148,49.2l0.8-0.2c-0.3,0.2-0.8,0.5-1,0.6L148,49.2z"/>
	<path class="st3" d="M146.3,50.2c0.2-0.1,0.6-0.3,0.8-0.3C146.9,49.9,146.5,50.1,146.3,50.2z"/>
	<path class="st3" d="M142.9,51.6c0.2-0.1,0.6-0.3,0.8-0.3C143.6,51.3,143.1,51.5,142.9,51.6z"/>
	<path class="st3" d="M141.1,52.3c0.2-0.1,0.6-0.3,0.8-0.3C141.8,52.1,141.4,52.2,141.1,52.3z"/>
	<path class="st3" d="M186.7,53.1c0.2-0.1,0.5-0.4,0.6-0.5C187.1,52.7,186.8,53,186.7,53.1z"/>
	<path class="st3" d="M137.9,53.7c0.2-0.1,0.6-0.3,0.9-0.4C138.6,53.4,138.1,53.6,137.9,53.7z"/>
	<path class="st3" d="M185.9,53.8c0.2-0.2,0.6-0.5,0.8-0.7C186.5,53.3,186.1,53.7,185.9,53.8z"/>
	<path class="st3" d="M136,54.5c0.2-0.1,0.7-0.3,0.9-0.4C136.7,54.2,136.2,54.4,136,54.5z"/>
	<path class="st3" d="M185.1,54.6c0.2-0.2,0.6-0.5,0.8-0.7C185.7,54,185.3,54.4,185.1,54.6z"/>
	<path class="st3" d="M134,55.5c0.2-0.1,0.7-0.3,0.9-0.4C134.6,55.1,134.2,55.3,134,55.5z"/>
	<path class="st3" d="M184.4,55.1c0.2-0.1,0.5-0.4,0.7-0.6C184.9,54.7,184.6,55,184.4,55.1z"/>
	<path class="st3" d="M132.3,56.2c0.2-0.1,0.5-0.2,0.7-0.3C132.8,56,132.5,56.2,132.3,56.2z"/>
	<path class="st3" d="M180.9,57.9c0.1-0.1,0.4-0.3,0.5-0.4C181.3,57.6,181,57.8,180.9,57.9z"/>
	<path class="st3" d="M127.8,58.5c0.2-0.1,0.5-0.2,0.6-0.3C128.2,58.3,127.9,58.5,127.8,58.5z"/>
	<path class="st3" d="M180.4,58.2c0.1-0.1,0.4-0.3,0.5-0.3C180.8,58,180.5,58.1,180.4,58.2z"/>
	<path class="st3" d="M126,59.5c0.2-0.1,0.6-0.4,0.9-0.5C126.6,59.2,126.2,59.4,126,59.5z"/>
	<path class="st3" d="M124.4,60.5c0.2-0.1,0.5-0.3,0.7-0.4C124.9,60.2,124.5,60.4,124.4,60.5z"/>
	<path class="st3" d="M120.8,62.8c0.1-0.1,0.4-0.3,0.5-0.3C121.2,62.5,121,62.7,120.8,62.8z"/>
	<path class="st3" d="M120.3,63.2c0.1-0.1,0.4-0.3,0.5-0.4C120.7,62.9,120.5,63.1,120.3,63.2z"/>
	<path class="st3" d="M192.7,64.9c0-0.2,0.1-0.4,0.1-0.6C192.8,64.4,192.8,64.7,192.7,64.9z"/>
	<path class="st3" d="M116.7,66.1c0.2-0.1,0.5-0.4,0.6-0.6C117.2,65.7,116.8,66,116.7,66.1z"/>
	<path class="st3" d="M115.9,66.9c0.2-0.2,0.6-0.6,0.8-0.8C116.5,66.3,116.1,66.7,115.9,66.9z"/>
	<path class="st3" d="M114.9,67.9c0.2-0.2,0.7-0.8,1-1C115.6,67.1,115.1,67.6,114.9,67.9z"/>
	<path class="st3" d="M114.1,68.7c0.2-0.2,0.6-0.6,0.8-0.8C114.7,68.1,114.3,68.5,114.1,68.7z"/>
	<path class="st3" d="M191.6,68.8c0.1-0.1,0.1-0.4,0.2-0.5C191.8,68.3,191.7,68.6,191.6,68.8z"/>
	<path class="st3" d="M113.6,69.3c0.1-0.2,0.4-0.5,0.5-0.6C114,68.9,113.7,69.2,113.6,69.3z"/>
	<path class="st3" d="M104.1,72.8c0.5,0.1,1.5,0.2,1.9,0.2c-0.5,0.2-1.6,0.5-2.1,0.7L104.1,72.8z"/>
	<path class="st3" d="M189.7,73.8c0.1-0.1,0.1-0.3,0.2-0.4C189.8,73.5,189.7,73.7,189.7,73.8z"/>
	<path class="st3" d="M97.9,74.9c0.5-0.3,1.6-0.8,2.2-1.1C99.6,74.1,98.5,74.6,97.9,74.9z"/>
	<path class="st3" d="M93.9,75.7c0.5-0.2,1.6-0.7,2.2-0.9C95.6,75,94.5,75.5,93.9,75.7z"/>
	<path class="st3" d="M87.9,77.6c0.2-0.1,0.6-0.2,0.7-0.3C88.4,77.4,88.1,77.5,87.9,77.6z"/>
	<path class="st3" d="M187.4,78.2c0.1-0.2,0.3-0.5,0.3-0.6C187.7,77.7,187.5,78.1,187.4,78.2z"/>
	<path class="st3" d="M86,78.2l0.8-0.2c-0.2,0.2-0.8,0.5-1,0.7L86,78.2z"/>
	<path class="st3" d="M84.4,79.1c0.2-0.1,0.5-0.2,0.6-0.3C84.9,78.9,84.6,79,84.4,79.1z"/>
	<path class="st3" d="M186.6,79.6c0.1-0.1,0.3-0.5,0.4-0.6C186.9,79.2,186.7,79.5,186.6,79.6z"/>
	<path class="st3" d="M77.9,82.6c0.2-0.1,0.4-0.2,0.6-0.3C78.4,82.3,78.1,82.5,77.9,82.6z"/>
	<path class="st3" d="M183.9,83.1c0.3-0.2,0.8-0.7,1.1-1l0.6,0.8l-0.1,0.7C185,83.5,184.3,83.2,183.9,83.1z"/>
	<path class="st3" d="M76,83.6c0.3-0.1,0.9-0.5,1.2-0.6C76.9,83.1,76.3,83.4,76,83.6z"/>
	<path class="st3" d="M73.9,84.8c0.2-0.1,0.7-0.4,0.9-0.5C74.6,84.4,74.1,84.7,73.9,84.8z"/>
	<path class="st3" d="M188.3,84.2l0.6,0.1l0.2,0.2C188.9,84.4,188.5,84.2,188.3,84.2z"/>
	<path class="st3" d="M73,85.4c0.2-0.2,0.7-0.4,0.9-0.6C73.7,85,73.2,85.3,73,85.4z"/>
	<path class="st3" d="M71,86.8c0.2-0.1,0.6-0.4,0.8-0.6C71.6,86.4,71.2,86.6,71,86.8z"/>
	<path class="st3" d="M195.2,86.3c0.1,0,0.4,0.1,0.5,0.2C195.6,86.5,195.4,86.4,195.2,86.3z"/>
	<path class="st3" d="M70.4,87.2c0.1-0.1,0.4-0.3,0.6-0.4C70.8,86.9,70.6,87.1,70.4,87.2z"/>
	<path class="st3" d="M200.4,88.3c0.2,0.1,0.5,0.2,0.7,0.3C201,88.6,200.6,88.4,200.4,88.3z"/>
	<path class="st3" d="M66.7,90c0.2-0.1,0.5-0.4,0.7-0.5C67.1,89.7,66.8,89.9,66.7,90z"/>
	<path class="st3" d="M202.1,89.1c0.2,0.1,0.7,0.3,0.9,0.5C202.8,89.4,202.3,89.2,202.1,89.1z"/>
	<path class="st3" d="M66,90.6c0.2-0.1,0.5-0.4,0.7-0.5C66.5,90.2,66.2,90.4,66,90.6z"/>
	<path class="st3" d="M203.9,90.1c0.2,0.1,0.5,0.3,0.7,0.4C204.5,90.4,204.1,90.2,203.9,90.1z"/>
	<path class="st3" d="M65.4,91.1c0.2-0.1,0.4-0.4,0.6-0.5C65.8,90.7,65.6,90.9,65.4,91.1z"/>
	<path class="st3" d="M207.3,92.2c0.1,0.1,0.4,0.3,0.5,0.3C207.7,92.5,207.5,92.3,207.3,92.2z"/>
	<path class="st3" d="M210.3,94.2c0.1,0.1,0.4,0.2,0.5,0.3C210.6,94.5,210.4,94.3,210.3,94.2z"/>
	<path class="st3" d="M214.7,97.6c0.2,0.1,0.5,0.4,0.6,0.5C215.2,98,214.9,97.7,214.7,97.6z"/>
	<path class="st3" d="M215.3,98.1c0.2,0.2,0.6,0.6,0.8,0.7C215.9,98.7,215.5,98.3,215.3,98.1z"/>
	<path class="st3" d="M216.1,98.9c0.2,0.2,0.6,0.6,0.7,0.8C216.7,99.5,216.3,99.1,216.1,98.9z"/>
	<path class="st3" d="M216.9,99.7c0.1,0.1,0.4,0.5,0.5,0.6C217.2,100.2,217,99.8,216.9,99.7z"/>
	<path class="st3" d="M54.8,101.9c0.1-0.1,0.3-0.4,0.4-0.5C55.2,101.5,54.9,101.7,54.8,101.9z"/>
	<path class="st3" d="M54.5,102.3c0.1-0.1,0.3-0.3,0.4-0.5C54.7,102,54.5,102.2,54.5,102.3z"/>
	<path class="st3" d="M220.4,104.2c0.1,0.1,0.2,0.3,0.3,0.4C220.7,104.5,220.5,104.3,220.4,104.2z"/>
	<path class="st3" d="M51.8,106c0.1-0.2,0.3-0.5,0.4-0.6C52.1,105.5,52,105.8,51.8,106z"/>
	<path class="st3" d="M183.6,106.6c16.3-6.5,34.8,7.5,31,25.2c-1.2,4.5-7.9,0.4-10.6-0.6c15.5-2,0.9-27.1-22.1-20.8
		C182.4,109.1,182.8,107.8,183.6,106.6z"/>
	<path class="st3" d="M51.5,106.8c0.1-0.2,0.3-0.6,0.4-0.8C51.8,106.2,51.6,106.6,51.5,106.8z"/>
	<path class="st3" d="M56.9,108c0.8-1.1,1.9-1.3,3.1-0.7L60,108C59.2,108,57.7,108,56.9,108z"/>
	<path class="st3" d="M64,107.4c1.2-0.7,2.3-0.5,3.2,0.6c-0.8,0-2.3,0.1-3.1,0.1L64,107.4z"/>
	<path class="st3" d="M51,108l0.6,0.5c-0.2,0-0.5,0-0.7,0.1L51,108z"/>
	<path class="st3" d="M70.2,108.6c0.2,0.1,0.5,0.2,0.7,0.2C70.8,108.8,70.4,108.7,70.2,108.6z"/>
	<path class="st3" d="M73,109.7c0.1,0.1,0.4,0.2,0.5,0.3C73.4,109.9,73.2,109.8,73,109.7z"/>
	<path class="st3" d="M73.6,110l0.4,0.2c-0.1,0.2-0.4,0.5-0.6,0.6L73.6,110z"/>
	<path class="st3" d="M180.2,110.8c0.2-0.1,0.5-0.2,0.7-0.2C180.7,110.7,180.4,110.8,180.2,110.8z"/>
	<path class="st3" d="M224.5,110.2c0.1,0.1,0.2,0.3,0.3,0.4C224.7,110.6,224.5,110.3,224.5,110.2z"/>
	<path class="st3" d="M72.1,111.5c0.2-0.1,0.5-0.2,0.7-0.3C72.6,111.2,72.3,111.4,72.1,111.5z"/>
	<path class="st3" d="M177.3,111.8c0.2-0.1,0.5-0.2,0.6-0.2C177.7,111.7,177.4,111.8,177.3,111.8z"/>
	<path class="st3" d="M68.9,112.7c0.3-0.1,0.8-0.3,1.1-0.4C69.7,112.3,69.2,112.6,68.9,112.7z"/>
	<path class="st3" d="M66.9,113.6c0.2-0.1,0.7-0.3,0.9-0.4C67.7,113.2,67.2,113.4,66.9,113.6z"/>
	<path class="st3" d="M175.9,113.3c0.1,0.1,0.3,0.3,0.4,0.4C176.2,113.7,176,113.4,175.9,113.3z"/>
	<path class="st3" d="M64.9,114.5c0.2-0.1,0.7-0.3,0.9-0.5C65.7,114.2,65.2,114.4,64.9,114.5z"/>
	<path class="st3" d="M176.3,113.8c0.1,0.1,0.4,0.3,0.5,0.4C176.6,114.1,176.4,113.9,176.3,113.8z"/>
	<path class="st3" d="M63,115.6c0.2-0.1,0.7-0.4,0.9-0.5C63.7,115.2,63.2,115.4,63,115.6z"/>
	<path class="st3" d="M61.4,116.4c0.2-0.1,0.5-0.3,0.7-0.4C61.9,116.2,61.5,116.4,61.4,116.4z"/>
	<path class="st3" d="M179.6,116.4c0.1,0.1,0.4,0.3,0.5,0.4C180,116.7,179.7,116.5,179.6,116.4z"/>
	<path class="st3" d="M180.1,116.8c0.1,0.1,0.4,0.3,0.6,0.4C180.6,117.1,180.3,116.9,180.1,116.8z"/>
	<path class="st3" d="M57.8,118.6c0.2-0.1,0.5-0.3,0.6-0.4C58.3,118.3,58,118.5,57.8,118.6z"/>
	<path class="st3" d="M56.4,119.5c0.2-0.1,0.5-0.3,0.6-0.4C56.8,119.2,56.5,119.4,56.4,119.5z"/>
	<path class="st3" d="M229.5,119.4c0.1,0.2,0.3,0.5,0.4,0.7C229.8,119.9,229.6,119.6,229.5,119.4z"/>
	<path class="st3" d="M184.4,120.2c0.1,0.1,0.3,0.2,0.4,0.3C184.7,120.4,184.5,120.2,184.4,120.2z"/>
	<path class="st3" d="M52.9,121.8c0.1-0.1,0.4-0.3,0.5-0.4C53.3,121.6,53,121.8,52.9,121.8z"/>
	<path class="st3" d="M230.4,121c0.1,0.2,0.4,0.7,0.5,0.9C230.7,121.7,230.5,121.2,230.4,121z"/>
	<path class="st3" d="M52.4,122.2c0.1-0.1,0.4-0.3,0.5-0.4C52.8,121.9,52.5,122.1,52.4,122.2z"/>
	<path class="st3" d="M188.5,123.1c0.2,0.1,0.5,0.3,0.6,0.4C189,123.4,188.7,123.2,188.5,123.1z"/>
	<path class="st3" d="M231.4,122.8c0.1,0.2,0.3,0.5,0.4,0.7C231.6,123.3,231.5,123,231.4,122.8z"/>
	<path class="st3" d="M48.7,125.1c0.2-0.1,0.5-0.4,0.7-0.5C49.2,124.7,48.8,124.9,48.7,125.1z"/>
	<path class="st3" d="M190.3,124.3c0.2,0.1,0.6,0.4,0.8,0.5C190.9,124.7,190.5,124.4,190.3,124.3z"/>
	<path class="st3" d="M48,125.6c0.2-0.1,0.5-0.4,0.6-0.5C48.5,125.2,48.2,125.5,48,125.6z"/>
	<path class="st3" d="M191.1,124.8c0.2,0.1,0.6,0.4,0.8,0.5C191.7,125.2,191.3,124.9,191.1,124.8z"/>
	<path class="st3" d="M47.4,126.1c0.2-0.1,0.5-0.4,0.6-0.5C47.9,125.7,47.6,126,47.4,126.1z"/>
	<path class="st3" d="M193,126.1c0.2,0.1,0.5,0.3,0.7,0.4C193.6,126.4,193.2,126.2,193,126.1z"/>
	<path class="st3" d="M233.4,126.2c0.1,0.1,0.2,0.3,0.3,0.5C233.6,126.6,233.5,126.3,233.4,126.2z"/>
	<path class="st3" d="M196.5,128.1c0.2,0.1,0.5,0.3,0.6,0.3C197,128.4,196.7,128.2,196.5,128.1z"/>
	<path class="st3" d="M198.1,129c0.2,0.1,0.5,0.2,0.6,0.3C198.6,129.2,198.3,129,198.1,129z"/>
	<path class="st3" d="M237.3,130.2c0.1,0.1,0.4,0.3,0.5,0.4C237.7,130.5,237.4,130.4,237.3,130.2z"/>
	<path class="st3" d="M40.7,132.1c0.2-0.1,0.4-0.4,0.6-0.5C41.2,131.7,40.9,132,40.7,132.1z"/>
	<path class="st3" d="M40.1,132.7c0.1-0.1,0.5-0.5,0.6-0.6C40.6,132.3,40.3,132.6,40.1,132.7z"/>
	<path class="st3" d="M240.5,132.3c0.2,0.1,0.5,0.3,0.6,0.4C241,132.6,240.7,132.4,240.5,132.3z"/>
	<path class="st3" d="M39.6,133.3c0.1-0.2,0.4-0.4,0.5-0.6C40,132.9,39.7,133.1,39.6,133.3z"/>
	<path class="st3" d="M242,133.1c0.2,0.1,0.5,0.3,0.6,0.4C242.4,133.4,242.1,133.2,242,133.1z"/>
	<path class="st3" d="M245.6,135.2c0.2,0.1,0.5,0.3,0.7,0.4C246.1,135.5,245.7,135.3,245.6,135.2z"/>
	<path class="st3" d="M247.1,136.1c0.2,0.1,0.6,0.4,0.8,0.5C247.8,136.4,247.4,136.2,247.1,136.1z"/>
	<path class="st3" d="M248.9,137.1c0.2,0.1,0.5,0.3,0.7,0.4C249.5,137.4,249.1,137.2,248.9,137.1z"/>
	<path class="st3" d="M33.6,140c0.1-0.2,0.4-0.4,0.5-0.6C34,139.6,33.7,139.9,33.6,140z"/>
	<path class="st3" d="M252.4,139.3c0.2,0.1,0.5,0.3,0.6,0.4C252.9,139.5,252.6,139.4,252.4,139.3z"/>
	<path class="st3" d="M33,140.7c0.1-0.2,0.4-0.5,0.5-0.6C33.5,140.2,33.2,140.5,33,140.7z"/>
	<path class="st3" d="M253.8,140c0.3,0.1,0.8,0.4,1.1,0.6C254.6,140.4,254.1,140.1,253.8,140z"/>
	<path class="st3" d="M32.5,141.3c0.1-0.2,0.4-0.5,0.5-0.6C32.9,140.8,32.7,141.1,32.5,141.3z"/>
	<path class="st3" d="M255.9,141.1c0.2,0.1,0.5,0.3,0.7,0.4C256.4,141.4,256.1,141.2,255.9,141.1z"/>
	<path class="st3" d="M259.4,143.3c0.1,0.1,0.5,0.3,0.6,0.4C259.9,143.6,259.6,143.4,259.4,143.3z"/>
	<path class="st3" d="M29.8,144.9c0.1-0.1,0.3-0.4,0.4-0.5C30.1,144.5,29.9,144.7,29.8,144.9z"/>
	<path class="st3" d="M260.8,144c0.3,0.1,0.8,0.4,1.1,0.5C261.6,144.4,261.1,144.2,260.8,144z"/>
	<path class="st3" d="M29.4,145.4c0.1-0.1,0.3-0.4,0.4-0.5C29.7,145,29.5,145.2,29.4,145.4z"/>
	<path class="st3" d="M262.9,145.1c0.2,0.1,0.5,0.3,0.7,0.4C263.5,145.4,263.1,145.2,262.9,145.1z"/>
	<path class="st3" d="M266.6,147.2c0.2,0.1,0.5,0.3,0.7,0.4C267.1,147.4,266.7,147.3,266.6,147.2z"/>
	<path class="st3" d="M27.2,148.7c0.1-0.1,0.3-0.4,0.3-0.5C27.5,148.3,27.3,148.6,27.2,148.7z"/>
	<path class="st3" d="M268.2,148.1c0.2,0.1,0.6,0.4,0.8,0.5C268.8,148.4,268.4,148.2,268.2,148.1z"/>
	<path class="st3" d="M269.9,149.1c0.2,0.1,0.5,0.3,0.7,0.4C270.5,149.4,270.1,149.2,269.9,149.1z"/>
	<path class="st3" d="M25.2,151.7c0.1-0.1,0.3-0.4,0.4-0.5C25.5,151.3,25.3,151.5,25.2,151.7z"/>
	<path class="st3" d="M273.4,151.3c0.1,0.1,0.5,0.3,0.6,0.4C273.9,151.5,273.6,151.4,273.4,151.3z"/>
	<path class="st3" d="M274.8,152c0.3,0.1,0.8,0.4,1.1,0.6C275.6,152.4,275.1,152.1,274.8,152z"/>
	<path class="st3" d="M276.9,153.1c0.2,0.1,0.5,0.3,0.7,0.4C277.4,153.4,277.1,153.2,276.9,153.1z"/>
	<path class="st3" d="M23,155.3c0.1-0.2,0.4-0.6,0.5-0.8C23.3,154.7,23.1,155.1,23,155.3z"/>
	<path class="st3" d="M280.6,155.2c0.2,0.1,0.5,0.3,0.6,0.4C281,155.5,280.7,155.3,280.6,155.2z"/>
	<path class="st3" d="M22.3,156.5c0.1-0.1,0.2-0.4,0.3-0.6C22.5,156.1,22.4,156.4,22.3,156.5z"/>
	<path class="st3" d="M282,156.1c0.2,0.1,0.5,0.3,0.6,0.4C282.5,156.3,282.1,156.1,282,156.1z"/>
	<path class="st3" d="M116,158.5c61.9-9.3,120.3,54,178,6.3c-14.6,20-37,37.9-63.1,35.1c-38.9-4.5-91.7-35.2-111.2,17
		c13.5,9,28.8,15.8,41.6,25.7c6.1,8.5,4.4,20.4,11.6,28.4c-7.1-5.6-40.4,21.6-49.8,24.5c-5.9-7.7-7.8-17.4-9.8-26.7
		c-2.9-11.8,0.7-24.1-1.5-35.9c-11.8-0.5-23.7-0.3-35.3-1.8c0.3-2.4,1-4.7,0.6-7.1c-1.8-13.7,8.2-25.2,13.1-37.1
		c-9.2-1-18.2,1.8-27,4.2C74.8,172.9,94.8,160.8,116,158.5z"/>
	<path class="st3" d="M287.5,159.2c0.2,0.1,0.5,0.3,0.7,0.4C288,159.5,287.7,159.4,287.5,159.2z"/>
	<path class="st3" d="M289,160.1c0.2,0.1,0.5,0.3,0.7,0.4C289.5,160.4,289.1,160.2,289,160.1z"/>
	<path class="st3" d="M292.5,162.1c0.1,0.1,0.3,0.2,0.5,0.3C292.8,162.4,292.6,162.2,292.5,162.1z"/>
	<path class="st3" d="M17.2,166.9c0-0.2,0.1-0.5,0.2-0.6C17.4,166.4,17.3,166.8,17.2,166.9z"/>
	<path class="st3" d="M24.3,166.9c0.1,0,0.4-0.1,0.5-0.1C24.6,166.8,24.4,166.8,24.3,166.9z"/>
	<path class="st3" d="M37.8,166.2c1.4-0.9,3.2,0.9,1.4,1.8c-0.3-0.3-1-0.9-1.4-1.2L37.8,166.2z"/>
	<path class="st3" d="M17.7,168.8c-1.1,2.1-3-0.4-0.6-0.8L17.7,168.8z"/>
	<path class="st3" d="M18.2,168.6c0.1,0,0.4-0.1,0.5-0.1C18.6,168.5,18.4,168.6,18.2,168.6z"/>
	<path class="st3" d="M37.1,171.1c0.1-0.2,0.3-0.5,0.4-0.6C37.4,170.6,37.2,170.9,37.1,171.1z"/>
	<path class="st3" d="M36,173.2c0.1-0.3,0.4-0.8,0.6-1.1C36.4,172.4,36.1,172.9,36,173.2z"/>
	<path class="st3" d="M35.3,174.5c0.1-0.2,0.2-0.4,0.3-0.6C35.5,174.1,35.3,174.4,35.3,174.5z"/>
	<path class="st3" d="M32.1,180.9c0.1-0.2,0.2-0.5,0.3-0.6C32.3,180.5,32.2,180.8,32.1,180.9z"/>
	<path class="st3" d="M31.2,182.8c0.1-0.3,0.4-0.8,0.6-1.1C31.6,182,31.3,182.5,31.2,182.8z"/>
	<path class="st3" d="M30.3,184.8c0.1-0.2,0.3-0.6,0.4-0.9C30.6,184.1,30.4,184.6,30.3,184.8z"/>
	<path class="st3" d="M29.2,187.9c0.1-0.2,0.2-0.6,0.3-0.8C29.4,187.3,29.2,187.7,29.2,187.9z"/>
	<path class="st3" d="M28.1,191c0.1-0.2,0.2-0.6,0.3-0.8C28.3,190.4,28.1,190.8,28.1,191z"/>
	<path class="st3" d="M27.2,193l0.4-0.2c-0.1,0.2-0.3,0.7-0.4,0.9L27.2,193z"/>
	<path class="st3" d="M25.8,198.1c0.2-0.6,0.8-1.7,1-2.3C26.6,196.4,26.1,197.6,25.8,198.1z"/>
	<path class="st3" d="M24.9,202.2c0.3-0.6,0.8-1.7,1-2.2C25.6,200.5,25.1,201.6,24.9,202.2z"/>
	<path class="st3" d="M24.1,205l0.6-0.2l0.3,0.8c-0.3,0.3-0.8,0.9-1.1,1.2C23.9,206.4,24,205.5,24.1,205z"/>
</g>
</svg>
