<?xml version="1.0" encoding="UTF-8" ?>
<!DOCTYPE svg PUBLIC "-//W3C//DTD SVG 1.1//EN" "http://www.w3.org/Graphics/SVG/1.1/DTD/svg11.dtd">
<svg width="600pt" height="339pt" viewBox="0 0 600 339" version="1.1" xmlns="http://www.w3.org/2000/svg">
<g id="#4cb24fff">
<path fill="#4cb24f" opacity="1.00" d=" M 0.00 0.00 L 115.00 0.00 C 152.39 37.21 189.42 74.79 227.08 111.74 C 221.91 111.50 219.75 116.49 216.51 119.51 C 191.63 143.96 167.28 168.95 142.53 193.53 C 134.17 200.88 127.86 210.17 119.60 217.61 C 87.78 250.44 54.68 282.07 23.33 315.34 C 14.90 321.77 9.42 331.75 0.00 336.87 L 0.00 0.00 Z" />
</g>
<g id="#fec307ff">
<path fill="#fec307" opacity="1.00" d=" M 115.00 0.00 L 362.45 0.00 C 401.33 40.14 441.67 78.94 480.65 118.98 C 478.28 123.04 474.33 125.79 471.06 129.08 C 433.34 166.61 395.86 204.39 358.06 241.84 C 343.48 229.54 331.05 214.88 317.20 201.80 C 287.22 171.77 256.98 141.90 227.08 111.74 C 189.42 74.79 152.39 37.21 115.00 0.00 Z" />
</g>
<g id="#f5f5f5ff">
</g>
<g id="#2196f3ff">
<path fill="#2196f3" opacity="1.00" d=" M 216.51 119.51 C 219.75 116.49 221.91 111.50 227.08 111.74 C 256.98 141.90 287.22 171.77 317.20 201.80 C 331.05 214.88 343.48 229.54 358.06 241.84 C 326.00 274.43 293.27 306.37 261.26 339.00 L 0.00 339.00 L 0.00 336.87 C 9.42 331.75 14.90 321.77 23.33 315.34 C 54.68 282.07 87.78 250.44 119.60 217.61 C 127.86 210.17 134.17 200.88 142.53 193.53 C 167.28 168.95 191.63 143.96 216.51 119.51 Z" />
</g>
</svg>
